<?xml version="1.0" encoding="UTF-8"?>
<svg xmlns="http://www.w3.org/2000/svg" version="1.1" viewBox="0 0 512 512">
  <defs>
    <style>
      .cls-1 {
        fill: #002256;
      }
    </style>
  </defs>
  <!-- Generator: Adobe Illustrator 28.7.1, SVG Export Plug-In . SVG Version: 1.2.0 Build 142)  -->
  <g>
    <g id="Layer_1">
      <path class="cls-1" d="M330.2,397c0-27.4-17.2-43.3-50.3-71.3-7.5-6.4-15.5-13.2-23.9-20.7-9.5,8.7-18.5,16.4-26.8,23.5-33,27.9-47.4,41.5-47.4,68.6,0,41,33.2,74.2,74.2,74.1,40.9,0,74.1-33.2,74.1-74.1h0Z"/>
      <path class="cls-1" d="M350,86.1c-25.6-21.7-52.1-44.2-78.8-70.9l-15.2-15.1-14.9,15.2c-48.1,48.3-70.8,122.4-80.7,166.8-7.6-11.7-13.2-24.6-16.6-38.1l-9.1-34.9-26.3,24.7c-46.1,43.3-76.8,86.2-76.8,154.9-.9,102,67.7,191.5,166.4,217.2,12.1,3.1,24.3,5.2,36.7,6.3-55.4-10.3-95.6-58.6-95.7-115,0-48,28.9-72.5,62.5-101.2,12-10.2,25.6-21.7,39.4-35.6l15.2-15.1,15.1,15.1c12.3,12.3,24.6,22.7,36.5,32.8,33.6,28.5,65.4,55.5,65.4,103.9,0,56.1-39.9,104.3-95.1,114.9,115-11.2,202.6-107.8,202.6-223.3,0-91.8-60.4-143.1-130.4-202.5Z"/>
    </g>
  </g>
</svg>