<?xml version="1.0" encoding="UTF-8"?>
<svg xmlns="http://www.w3.org/2000/svg" version="1.1" viewBox="0 0 512 512">
  <defs>
    <style>
      .cls-1 {
        fill: #002256;
      }
    </style>
  </defs>
  <!-- Generator: Adobe Illustrator 28.7.1, SVG Export Plug-In . SVG Version: 1.2.0 Build 142)  -->
  <g>
    <g id="Layer_1">
      <path class="cls-1" d="M160,277.3c-53,0-96-43-96-96s43-96,96-96,96,43,96,96c0,53-43,95.9-96,96ZM298.7,512H21.3c-11.8,0-21.3-9.6-21.3-21.3v-10.7c0-88.4,71.6-160,160-160s160,71.6,160,160v10.7c0,11.8-9.6,21.3-21.3,21.3ZM373.3,192c-53,0-96-43-96-96S320.3,0,373.3,0s96,43,96,96c0,53-43,95.9-96,96ZM343,235.1c-40.2,5.4-76.3,27.3-99.6,60.4,47.8,21.7,85.4,61.1,104.8,109.8h142.4c11.8,0,21.3-9.6,21.3-21.3v-.8c0-82.6-67.1-149.4-149.7-149.3-6.5,0-12.9.4-19.3,1.3Z"/>
    </g>
  </g>
</svg>