<?xml version="1.0" encoding="UTF-8"?>
<svg xmlns="http://www.w3.org/2000/svg" version="1.1" viewBox="0 0 512 512">
  <defs>
    <style>
      .cls-1 {
        fill: #002256;
      }
    </style>
  </defs>
  <!-- Generator: Adobe Illustrator 28.7.1, SVG Export Plug-In . SVG Version: 1.2.0 Build 142)  -->
  <g>
    <g id="Layer_1">
      <path class="cls-1" d="M132.3,384c-24.6,0-49.2-7.5-69.9-22.3l-44.3-31.5c-9.6-6.8-16-17.3-17.7-28.9-1.6-10.9,1.2-21.4,7.7-29.8,11.1-14.1,29.6-19.5,46.3-13.4l69.3,25.4,312.6-150.6c26.7-12.4,58.4-.6,70.7,26,12.3,26.6.8,58.6-25.7,71.2l-297.6,142.2c-16.3,7.8-33.9,11.6-51.5,11.6h0ZM512,490.7c0-11.8-9.6-21.3-21.3-21.3H21.3c-11.8,0-21.3,9.5-21.3,21.3s9.6,21.3,21.3,21.3h469.3c11.8,0,21.3-9.5,21.3-21.3ZM183.8,207.3l115.6-55.7-124.8-77.1c-15.7-11.6-36.4-13.8-54.2-5.5l-16.7,7.8c-9.8,4.6-16.5,13.7-18,24.4-1.5,10.7,2.4,21.4,10.5,28.5l87.6,77.6h0Z"/>
    </g>
  </g>
</svg>