<?xml version="1.0" encoding="UTF-8"?>
<svg xmlns="http://www.w3.org/2000/svg" version="1.1" viewBox="0 0 512 512">
  <defs>
    <style>
      .cls-1 {
        fill: #002256;
      }
    </style>
  </defs>
  <!-- Generator: Adobe Illustrator 28.7.1, SVG Export Plug-In . SVG Version: 1.2.0 Build 142)  -->
  <g>
    <g id="Layer_1">
      <path class="cls-1" d="M447.5,256h-114.2c-13,0-25.8,3.9-36.6,11.1l-41.8,27.9c-3.5,2.3-7.6,3.6-11.8,3.6H21.3c-11.8,0-21.3,9.6-21.3,21.3v170.7c0,11.8,9.6,21.3,21.3,21.3h246.1c109.1-.2,206.1-69.7,241.3-173.1,10.6-33.5-8-69.3-41.5-79.9-6.4-2-13-3-19.7-2.9ZM85.3,426.7c-11.8,0-21.3-9.6-21.3-21.3s9.6-21.3,21.3-21.3,21.3,9.6,21.3,21.3-9.6,21.3-21.3,21.3ZM170.7,426.7c-11.8,0-21.3-9.6-21.3-21.3s9.6-21.3,21.3-21.3,21.3,9.6,21.3,21.3-9.6,21.3-21.3,21.3ZM256,426.7c-11.8,0-21.3-9.6-21.3-21.3s9.6-21.3,21.3-21.3,21.3,9.6,21.3,21.3-9.6,21.3-21.3,21.3ZM21.3,256c-7.3,0-14.5,1.4-21.3,3.9v-67.9h213.3c11.8,0,21.3-9.6,21.3-21.3s-9.6-21.3-21.3-21.3H0v-45.6c0-11.8,9.6-21.3,21.3-21.3h51l-6.8-26c-6.3-24,8-48.6,32-54.9C101.2.5,105.1,0,108.9,0h0c20.4,0,38.2,13.7,43.5,33.5l12.8,48.9h48.1c24.7,0,48.7,8.6,67.8,24.3,36.1,31.2,68,67.1,94.7,106.7h-42.1c-21.4,0-42.3,6.3-60.2,17.9l-36.9,24.7H21.3Z"/>
    </g>
  </g>
</svg>