<?xml version="1.0" encoding="UTF-8"?>
<svg xmlns="http://www.w3.org/2000/svg" version="1.1" viewBox="0 0 512 512">
  <defs>
    <style>
      .cls-1 {
        fill: #002256;
      }
    </style>
  </defs>
  <!-- Generator: Adobe Illustrator 28.7.1, SVG Export Plug-In . SVG Version: 1.2.0 Build 142)  -->
  <g>
    <g id="Layer_1">
      <path class="cls-1" d="M435,70.4c-10.8-29.4-38.8-49-70.2-49.1h-217.6c-31.1,0-58.9,19.2-69.8,48.3l-46.1,116C10.6,242.6,0,302.7,0,363.3v63.3h64v64h85.3v-64h213.3v64h85.3v-64h64v-63.3c0-61-10.7-121.4-31.7-178.7l-45.4-114.3ZM362.7,330.7h0c0-17.7,14.3-32,32-32h0c17.7,0,32,14.3,32,32h0c0,17.7-14.3,32-32,32h0c-17.7,0-32-14.3-32-32ZM91.1,208.3l46.1-116c1.5-4.2,5.5-7,10-7h217.6c4.8.1,9,3.3,10.3,7.9l45.4,114.2c3.3,9,6.1,18.1,8.7,27.2H82.7c2.6-8.9,5.2-17.7,8.4-26.3ZM117.3,362.7h0c-17.7,0-32-14.3-32-32h0c0-17.7,14.3-32,32-32h0c17.7,0,32,14.3,32,32h0c0,17.7-14.3,32-32,32Z"/>
    </g>
  </g>
</svg>