<?xml version="1.0" encoding="UTF-8"?>
<svg xmlns="http://www.w3.org/2000/svg" version="1.1" viewBox="0 0 512 512">
  <defs>
    <style>
      .cls-1 {
        fill: #fff;
      }
    </style>
  </defs>
  <!-- Generator: Adobe Illustrator 28.7.1, SVG Export Plug-In . SVG Version: 1.2.0 Build 142)  -->
  <g>
    <g id="Outline">
      <path class="cls-1" d="M.3,255.8H.3c.2-19.2,7.9-37.6,21.6-51.1L178.6,47.6c14.2-14.2,37.3-14.2,51.5,0,14.3,14.2,14.4,37.3.2,51.7,0,0-.1.1-.2.2l-120.2,119.8h365.3c20.2,0,36.5,16.4,36.5,36.5s-16.4,36.5-36.5,36.5H109.9l120.2,120.2c14.3,14.2,14.4,37.4.2,51.7-14.2,14.3-37.4,14.4-51.7.2L21.9,307.3C8.1,293.7.4,275.2.3,255.8Z"/>
    </g>
  </g>
</svg>