<?xml version="1.0" encoding="UTF-8"?>
<svg xmlns="http://www.w3.org/2000/svg" version="1.1" viewBox="0 0 512 512">
  <defs>
    <style>
      .cls-1 {
        fill: #fff;
      }
    </style>
  </defs>
  <!-- Generator: Adobe Illustrator 28.7.1, SVG Export Plug-In . SVG Version: 1.2.0 Build 142)  -->
  <g>
    <g id="Filled">
      <path class="cls-1" d="M106.7,469.3c23.6,0,42.7-19.1,42.7-42.7v-128c0-23.6-19.1-42.7-42.7-42.7v-21.3c0-82.5,66.9-149.3,149.3-149.3s149.3,66.9,149.3,149.3v21.3c-23.6,0-42.7,19.1-42.7,42.7v128h-64c-11.8,0-21.3,9.6-21.3,21.3s9.6,21.3,21.3,21.3h106.7c58.9-.2,106.5-48.1,106.3-107-.1-42.2-25.1-80.3-63.7-97.3v-30.4c0-106-86-192-192-192S64,128.6,64,234.7v30.4c-53.9,23.7-78.4,86.7-54.6,140.6,17,38.6,55.1,63.6,97.3,63.7Z"/>
    </g>
  </g>
</svg>