<?xml version="1.0" encoding="UTF-8"?>
<svg xmlns="http://www.w3.org/2000/svg" version="1.1" viewBox="0 0 512 512">
  <defs>
    <style>
      .cls-1 {
        fill: #002256;
      }
    </style>
  </defs>
  <!-- Generator: Adobe Illustrator 28.7.1, SVG Export Plug-In . SVG Version: 1.2.0 Build 142)  -->
  <g>
    <g id="Layer_1">
      <path class="cls-1" d="M512,133.1c0,163-216.1,378.9-378.9,378.9s-68.9-13.4-93.4-38l-21.3-24.5c-24.7-24.7-24.7-66.6,1.1-92.4.6-.6,52.1-40.1,52.1-40.1,25.6-24.3,65.9-24.3,91.3,0l31.1,25c68.3-29,116.7-77.7,147.8-148.3l-24.7-31.1c-24.5-25.4-24.5-65.9,0-91.3,0,0,39.5-51.4,40.1-52.1,25.8-25.8,67.6-25.8,93.4,0l22.4,19.4c25.6,25.4,39,58.7,39,94.3v.2Z"/>
    </g>
  </g>
</svg>