<?xml version="1.0" encoding="UTF-8"?>
<svg xmlns="http://www.w3.org/2000/svg" version="1.1" viewBox="0 0 512 512">
  <defs>
    <style>
      .cls-1 {
        fill: #b7021c;
      }
    </style>
  </defs>
  <!-- Generator: Adobe Illustrator 28.7.1, SVG Export Plug-In . SVG Version: 1.2.0 Build 142)  -->
  <g>
    <g id="Filled">
      <path class="cls-1" d="M426.7,0H85.3C38.2,0,0,38.2,0,85.3v256c0,47.1,38.2,85.3,85.3,85.3h61.9l95,80.3c8,6.7,19.6,6.7,27.6,0l95.1-80.3h61.9c47.1,0,85.3-38.2,85.3-85.3V85.3c0-47.1-38.2-85.3-85.3-85.3ZM149.3,106.7h106.7c11.8,0,21.3,9.6,21.3,21.3s-9.6,21.3-21.3,21.3h-106.7c-11.8,0-21.3-9.6-21.3-21.3s9.6-21.3,21.3-21.3ZM362.7,320h-213.3c-11.8,0-21.3-9.6-21.3-21.3s9.6-21.3,21.3-21.3h213.3c11.8,0,21.3,9.6,21.3,21.3s-9.6,21.3-21.3,21.3ZM362.7,234.7h-213.3c-11.8,0-21.3-9.6-21.3-21.3s9.6-21.3,21.3-21.3h213.3c11.8,0,21.3,9.6,21.3,21.3s-9.6,21.3-21.3,21.3Z"/>
    </g>
  </g>
</svg>