<?xml version="1.0" encoding="UTF-8"?>
<svg xmlns="http://www.w3.org/2000/svg" version="1.1" viewBox="0 0 512 512">
  <defs>
    <style>
      .cls-1 {
        fill: #b7021c;
      }
    </style>
  </defs>
  <!-- Generator: Adobe Illustrator 28.7.1, SVG Export Plug-In . SVG Version: 1.2.0 Build 142)  -->
  <g>
    <g id="Layer_1">
      <path class="cls-1" d="M273.8.6C199.7-4.3,127.2,22.7,74.9,75.1,22.5,127.5-4.5,200.1.6,274.2c9.4,135.6,129.1,237.8,278.5,237.8h126.2c58.8,0,106.7-47.9,106.7-106.7v-142.1c0-138.2-104.6-253.6-238.2-262.7ZM253.9,405.3c-17.7,0-32-14.3-32-32s14.3-32,32-32,32,14.3,32,32-14.3,32-32,32ZM295.1,266.4c-11.1,6.1-19.8,20.3-19.8,32.3s-9.6,21.3-21.3,21.3-21.3-9.5-21.3-21.3c0-27.4,17.2-56,41.9-69.6,16.3-9,24.7-26.8,21.4-45.3-2.9-16.8-17.3-31.1-34-34-12.9-2.3-25.5,1-35.3,9.3-9.7,8.1-15.2,20.1-15.2,32.7s-9.6,21.3-21.3,21.3-21.3-9.5-21.3-21.3c0-25.3,11.1-49.1,30.5-65.3,19.4-16.3,44.9-23,70.2-18.6,34.4,6,62.7,34.3,68.7,68.7,6.4,36.2-10.9,72.4-42.9,90.1h0Z"/>
    </g>
  </g>
</svg>