<?xml version="1.0" encoding="UTF-8"?>
<svg xmlns="http://www.w3.org/2000/svg" version="1.1" viewBox="0 0 512 512">
  <defs>
    <style>
      .cls-1 {
        fill: #292929;
      }
    </style>
  </defs>
  <!-- Generator: Adobe Illustrator 28.7.1, SVG Export Plug-In . SVG Version: 1.2.0 Build 142)  -->
  <g>
    <g id="Outline">
      <path class="cls-1" d="M500.1,11.9h0c-15.9-15.9-41.6-15.9-57.5,0l-186.6,186.6L69.4,11.9C53.5-4,27.8-4,11.9,11.9h0c-15.9,15.9-15.9,41.6,0,57.5l186.6,186.6L11.9,442.6c-15.9,15.9-15.9,41.6,0,57.5h0c15.9,15.9,41.6,15.9,57.5,0l186.6-186.6,186.6,186.6c15.9,15.9,41.6,15.9,57.5,0h0c15.9-15.9,15.9-41.6,0-57.5l-186.6-186.6,186.6-186.6c15.9-15.9,15.9-41.6,0-57.5Z"/>
    </g>
  </g>
</svg>