<?xml version="1.0" encoding="UTF-8"?>
<svg xmlns="http://www.w3.org/2000/svg" version="1.1" viewBox="0 0 512 512">
  <defs>
    <style>
      .cls-1 {
        fill: #002256;
      }
    </style>
  </defs>
  <!-- Generator: Adobe Illustrator 28.7.1, SVG Export Plug-In . SVG Version: 1.2.0 Build 142)  -->
  <g>
    <g id="Layer_1">
      <path class="cls-1" d="M446.8,378.2c-67.3,81.7-188.2,93.4-269.9,26.1-20.9-17.2-37.9-38.6-49.9-62.9h182.4c17.7,0,32-14.3,32-32s-14.3-32-32-32H107.9c-1.7-14.2-1.7-28.5,0-42.7h201.4c17.7,0,32-14.3,32-32s-14.3-32-32-32H126.9c47-94.9,162-133.7,256.9-86.8,24.3,12,45.7,29,62.9,49.9,11.3,13.6,31.4,15.6,45.1,4.3s15.6-31.4,4.3-45.1h0C406.3-15.9,245.1-31.4,136.1,58.4c-35.9,29.6-63,68.4-78.5,112.3h-25.6C14.3,170.7,0,185,0,202.7s14.3,32,32,32h11.8c-.6,7.1-1.1,14.1-1.1,21.3s.5,14.3,1.1,21.3h-11.8C14.3,277.3,0,291.7,0,309.3s14.3,32,32,32h25.6c47,133.2,193.1,203.1,326.3,156.1,43.9-15.5,82.7-42.6,112.3-78.5,11.3-13.6,9.3-33.8-4.3-45.1s-33.8-9.3-45.1,4.3Z"/>
    </g>
  </g>
</svg>